# xmcd
#
# Track frame offsets: 
#        150
#        22190
#        40635
#        61943
#        78442
#        99674
#        117225
#        136054
#        157819
#        180378
#        196723
#        217785
#        234321
#        264313
#        286989
#
# Disc length: 4057 seconds
#
# Revision: 0
# Processed by: cddbd v1.5.2PL0 Copyright (c) Steve Scherf et al.
# Submitted via: ExactAudioCopy v0.99pb5
#
DISCID=b70fd70f
DTITLE=Miguel Bose - Los Chicos No Lloran
DYEAR=2008
DGENRE=Pop
TTITLE0=Bambu
TTITLE1=Sensa Di Te
TTITLE2=Manos Vacia
TTITLE3=Hojas Secas
TTITLE4=Si Te Cuentan Que Cai
TTITLE5=Nunca Pasa Nada
TTITLE6=Aquel Sendero
TTITLE7=Otro
TTITLE8=Unica Libera Radio
TTITLE9=Los Chicos No Lloran
TTITLE10=Josephine
TTITLE11=Mix Otono
TTITLE12=Los Chicos No Lloran Extended
TTITLE13=Nena Remix
TTITLE14=Madrid Madrid
EXTD=
EXTT0=
EXTT1=
EXTT2=
EXTT3=
EXTT4=
EXTT5=
EXTT6=
EXTT7=
EXTT8=
EXTT9=
EXTT10=
EXTT11=
EXTT12=
EXTT13=
EXTT14=
PLAYORDER=
